<svg width="31" height="42" viewBox="0 0 31 42" fill="none" xmlns="http://www.w3.org/2000/svg">
<path fill-rule="evenodd" clip-rule="evenodd" d="M20.9752 41.6178C21.1926 41.8606 21.505 41.991 21.8175 41.991L21.8129 42C21.9805 42 22.1526 41.9595 22.311 41.8831C24.3126 40.9029 26.1103 39.4731 27.5141 37.7375C27.5322 37.7195 27.5639 37.6791 27.5639 37.6791C27.9533 37.1755 28.4514 36.5055 28.8952 35.7366C28.9043 35.7187 28.9133 35.7052 28.9224 35.6917C30.2401 33.3986 30.9375 30.7772 30.9375 28.1064V28.0839C30.9375 28.0327 30.9341 27.9825 30.9275 27.9333C30.8954 24.904 29.9783 21.989 28.2929 19.523C28.234 19.4331 28.1706 19.3387 28.1163 19.2667C27.0385 17.738 25.6936 16.4295 24.1223 15.3729C21.5683 13.6553 18.5842 12.7381 15.4823 12.7381C14.88 12.7381 14.3819 13.2012 14.3502 13.7992C14.3366 14.069 14.3275 14.3388 14.3275 14.613C14.3275 18.6058 15.9215 22.3377 18.8106 25.1074C19.5623 25.8313 20.391 26.4743 21.274 27.0183C23.357 28.3178 25.7616 29.0732 28.2295 29.2035C28.3615 29.2101 28.4934 29.2156 28.6259 29.2195C28.4657 31.0978 27.9016 32.9226 26.9707 34.5496C26.9662 34.5631 26.9571 34.5766 26.948 34.5901C26.5722 35.2421 26.1511 35.8176 25.7843 36.2942C25.7797 36.2987 25.7763 36.3032 25.773 36.3077C25.7696 36.3122 25.7662 36.3167 25.7616 36.3212C25.259 36.9372 24.702 37.5127 24.0997 38.0298C24.1903 37.5082 24.2356 36.9731 24.2356 36.4426C24.2356 35.1746 23.9865 33.9426 23.4975 32.7826C22.791 31.1054 21.6182 29.6801 20.1239 28.6595C19.6031 28.2953 19.0235 27.9805 18.3941 27.7152C17.2257 27.2251 15.985 26.9778 14.708 26.9778H6.3125C4.64608 26.9778 3.16985 25.9842 2.54494 24.4509C2.35475 23.9743 2.25512 23.4707 2.25512 22.9491V6.27684C2.25512 4.05567 4.07551 2.24815 6.3125 2.24815H24.616C25.0643 2.24815 25.508 2.32009 25.9337 2.45948C27.573 3.02152 28.6733 4.55476 28.6733 6.27684V14.4197C28.6733 15.0401 29.1805 15.5437 29.8054 15.5437C30.4303 15.5437 30.9375 15.0401 30.9375 14.4197V6.27684C30.9375 3.59705 29.2213 1.20951 26.6582 0.332727C25.9926 0.112408 25.3088 0 24.616 0H6.3125C2.82569 0 -0.009035 2.81469 2.1641e-05 6.27684V22.9491C2.1641e-05 23.7585 0.153984 24.5453 0.452853 25.2917C1.42191 27.6793 3.72683 29.226 6.32156 29.226H14.7171C15.6906 29.226 16.6325 29.4148 17.5201 29.7835C18.0001 29.9859 18.4393 30.2242 18.8378 30.5029C19.9835 31.2853 20.8756 32.3734 21.4144 33.6504C21.7858 34.5316 21.976 35.4714 21.976 36.4381C21.976 37.0136 21.908 37.5846 21.7722 38.1377C21.582 38.911 21.2786 39.6259 20.8665 40.2644C20.5903 40.6871 20.6356 41.2401 20.9752 41.6178ZM20.3864 23.4977C18.0408 21.2451 16.7094 18.255 16.6008 15.0357L16.6053 15.0402C18.8468 15.229 20.9887 15.9799 22.8589 17.2389C24.1993 18.1381 25.3495 19.2577 26.2823 20.5796C26.3087 20.6157 26.3327 20.6517 26.3648 20.6999C26.3767 20.7179 26.3898 20.7375 26.4046 20.7595C27.6725 22.6165 28.4333 24.7477 28.6235 26.9734L28.3517 26.9599C26.2687 26.8475 24.2355 26.209 22.4695 25.1119C21.7178 24.6533 21.0204 24.1092 20.3864 23.4977Z" fill="#4D342C"/>
</svg>
