<svg width="40" height="54" viewBox="0 0 40 54" fill="none" xmlns="http://www.w3.org/2000/svg">
<path fill-rule="evenodd" clip-rule="evenodd" d="M26.8016 53.4157C27.0794 53.7273 27.4786 53.8947 27.8779 53.8947L27.8721 53.9062C28.0862 53.9062 28.306 53.8543 28.5086 53.7562C31.0661 52.4981 33.3632 50.663 35.1569 48.4354C35.18 48.4123 35.2205 48.3604 35.2205 48.3604C35.7181 47.714 36.3546 46.8542 36.9217 45.8673C36.9332 45.8443 36.9448 45.827 36.9564 45.8097L36.9564 45.8096C38.6402 42.8665 39.5312 39.502 39.5312 36.0741V36.0452C39.5312 35.9795 39.5269 35.915 39.5185 35.8519C39.4775 31.9639 38.3056 28.2225 36.152 25.0574C36.0768 24.942 35.9958 24.8208 35.9264 24.7285C34.5492 22.7664 32.8307 21.087 30.8229 19.7309C27.5595 17.5264 23.7464 16.3491 19.7829 16.3491C19.0133 16.3491 18.3769 16.9435 18.3363 17.711C18.319 18.0573 18.3074 18.4036 18.3074 18.7556C18.3074 23.8802 20.3442 28.67 24.0357 32.2249C24.9963 33.154 26.0551 33.9793 27.1834 34.6776C29.8451 36.3454 32.9175 37.3149 36.071 37.4822C36.2396 37.4907 36.4083 37.4977 36.5776 37.5027C36.3728 39.9135 35.6521 42.2556 34.4625 44.3438C34.4568 44.3611 34.4452 44.3784 34.4336 44.3958C33.9534 45.2325 33.4152 45.9712 32.9466 46.5829C32.9408 46.5887 32.9364 46.5945 32.9321 46.6003C32.9278 46.606 32.9234 46.6118 32.9176 46.6176C32.2754 47.4082 31.5637 48.1469 30.7941 48.8105C30.9098 48.1411 30.9677 47.4543 30.9677 46.7734C30.9677 45.146 30.6495 43.5647 30.0245 42.0758C29.1219 39.9233 27.6233 38.0939 25.7138 36.7839C25.0484 36.3165 24.3078 35.9125 23.5035 35.572C22.0107 34.943 20.4253 34.6256 18.7936 34.6256H8.06597C5.93665 34.6256 4.05036 33.3502 3.25186 31.3823C3.00884 30.7706 2.88155 30.1242 2.88155 29.4548V8.05622C2.88155 5.20538 5.20759 2.88546 8.06597 2.88546H31.4537C32.0266 2.88546 32.5936 2.9778 33.1375 3.1567C35.2321 3.87806 36.6382 5.84595 36.6382 8.05622V18.5074C36.6382 19.3038 37.2862 19.9501 38.0847 19.9501C38.8832 19.9501 39.5312 19.3038 39.5312 18.5074V8.05622C39.5312 4.61674 37.3383 1.55238 34.0633 0.427049C33.2127 0.144273 32.339 0 31.4537 0H8.06597C3.61061 0 -0.0115447 3.6126 2.76523e-05 8.05622V29.4548C2.76523e-05 30.4936 0.196758 31.5035 0.578646 32.4615C1.81689 35.5258 4.76206 37.511 8.07754 37.511H18.8051C20.0492 37.511 21.2527 37.7534 22.3868 38.2266C23.0001 38.4863 23.5614 38.7922 24.0706 39.15C25.5345 40.1541 26.6743 41.5507 27.3629 43.1896C27.8374 44.3207 28.0804 45.5269 28.0804 46.7676C28.0804 47.5063 27.9936 48.2392 27.82 48.949C27.577 49.9416 27.1893 50.8592 26.6628 51.6787C26.3098 52.2211 26.3677 52.931 26.8016 53.4157ZM26.0493 30.1589C23.0521 27.2677 21.351 23.43 21.2121 19.298L21.2179 19.3038C24.082 19.5462 26.8189 20.5099 29.2086 22.1258C30.9213 23.28 32.391 24.717 33.5829 26.4136C33.6167 26.4599 33.6473 26.5061 33.6884 26.568C33.7036 26.5911 33.7203 26.6163 33.7392 26.6444C35.3593 29.0278 36.3314 31.7633 36.5744 34.6199L36.2272 34.6026C33.5656 34.4583 30.9676 33.6388 28.711 32.2307C27.7505 31.6421 26.8594 30.9438 26.0493 30.1589Z" fill="white" fill-opacity="0.5"/>
</svg>
